<svg xmlns="http://www.w3.org/2000/svg" width="480pt" height="290pt" viewBox="0 0 480 290" version="1.1" xmlns:xlink="http://www.w3.org/1999/xlink">
  <g id="surface2" transform="matrix(1,0,0,1,146.5,47)">
    <path style="stroke:none;fill-rule:evenodd;fill:rgb(45.098039%,1.960784%,0.000000%);fill-opacity:1" d="M 302.050781 101.000000 C 299.882812 106.832031 296.949219 112.050781 293.250000 116.648438 C 289.550781 121.250000 285.300781 125.148438 280.500000 128.351562 C 275.667969 131.550781 270.464844 133.964844 264.898438 135.601562 C 259.332031 137.199219 253.601562 137.917969 247.699219 137.750000 C 241.832031 137.582031 235.964844 136.449219 230.101562 134.351562 C 224.265625 132.183594 219.050781 129.250000 214.449219 125.550781 C 209.851562 121.851562 205.949219 117.601562 202.750000 112.800781 C 199.550781 107.964844 197.148438 102.765625 195.550781 97.199219 C 193.949219 91.632812 193.234375 85.898438 193.398438 80.000000 C 193.535156 74.132812 194.667969 68.265625 196.800781 62.398438 C 198.964844 56.566406 201.898438 51.351562 205.601562 46.750000 C 209.265625 42.148438 213.515625 38.250000 218.351562 35.050781 C 223.183594 31.851562 228.367188 29.449219 233.898438 27.851562 C 239.464844 26.250000 245.199219 25.535156 251.101562 25.699219 C 257.000000 25.832031 262.867188 26.964844 268.699219 29.101562 C 274.535156 31.265625 279.750000 34.199219 284.351562 37.898438 C 288.949219 41.566406 292.851562 45.816406 296.050781 50.648438 C 299.250000 55.484375 301.667969 60.667969 303.300781 66.199219 C 304.898438 71.765625 305.617188 77.500000 305.449219 83.398438 C 305.285156 89.300781 304.148438 95.167969 302.050781 101.000000 "/>
    <path style="stroke:none;fill-rule:evenodd;fill:rgb(65.098039%,65.098039%,60.000000%);fill-opacity:1" d="M 206.750000 105.601562 C 206.785156 105.667969 207.382812 106.015625 208.550781 106.648438 C 209.714844 107.285156 211.265625 107.882812 213.199219 108.449219 C 215.132812 109.015625 217.285156 109.214844 219.648438 109.050781 C 221.984375 108.882812 224.367188 108.000000 226.800781 106.398438 C 226.800781 106.464844 226.449219 106.949219 225.750000 107.851562 C 225.050781 108.714844 224.082031 109.648438 222.851562 110.648438 C 221.617188 111.617188 220.148438 112.285156 218.449219 112.648438 C 216.785156 113.015625 214.949219 112.699219 212.949219 111.699219 C 210.984375 110.699219 208.917969 108.667969 206.750000 105.601562 M 216.148438 133.250000 C 216.117188 133.250000 215.917969 132.816406 215.550781 131.949219 C 215.183594 131.082031 214.898438 129.882812 214.699219 128.351562 C 214.500000 126.785156 214.632812 124.964844 215.101562 122.898438 C 215.601562 120.832031 216.648438 118.582031 218.250000 116.148438 C 218.214844 116.214844 218.265625 116.699219 218.398438 117.601562 C 218.535156 118.535156 218.867188 119.566406 219.398438 120.699219 C 219.933594 121.832031 220.765625 122.734375 221.898438 123.398438 C 221.867188 123.367188 221.800781 122.750000 221.699219 121.550781 C 221.632812 120.351562 221.750000 118.785156 222.050781 116.851562 C 222.382812 114.917969 223.132812 112.832031 224.300781 110.601562 C 225.464844 108.367188 227.300781 106.183594 229.800781 104.050781 C 229.734375 103.882812 229.683594 103.734375 229.648438 103.601562 C 229.617188 103.632812 228.851562 103.800781 227.351562 104.101562 C 225.816406 104.398438 223.898438 104.632812 221.601562 104.800781 C 219.300781 104.964844 216.898438 104.867188 214.398438 104.500000 C 211.898438 104.132812 209.632812 103.300781 207.601562 102.000000 C 205.132812 103.464844 202.882812 104.535156 200.851562 105.199219 C 198.816406 105.867188 197.199219 106.300781 196.000000 106.500000 C 194.765625 106.667969 194.132812 106.734375 194.101562 106.699219 C 195.734375 107.832031 197.117188 108.515625 198.250000 108.750000 C 199.382812 109.015625 199.984375 109.117188 200.050781 109.050781 C 198.015625 110.285156 195.964844 111.167969 193.898438 111.699219 C 191.800781 112.234375 189.882812 112.550781 188.148438 112.648438 C 186.382812 112.750000 184.964844 112.765625 183.898438 112.699219 C 182.832031 112.601562 182.285156 112.550781 182.250000 112.550781 C 185.515625 115.984375 188.750000 118.464844 191.949219 120.000000 C 195.148438 121.535156 198.066406 122.449219 200.699219 122.750000 C 203.332031 123.050781 205.449219 123.101562 207.050781 122.898438 C 208.648438 122.667969 209.464844 122.515625 209.500000 122.449219 C 209.367188 124.214844 209.417969 125.898438 209.648438 127.500000 C 210.316406 128.398438 211.183594 129.367188 212.250000 130.398438 C 213.351562 131.464844 214.648438 132.417969 216.148438 133.250000 "/>
    <path style="stroke:none;fill-rule:evenodd;fill:rgb(65.098039%,65.098039%,60.000000%);fill-opacity:1" d="M 235.351562 93.398438 C 235.351562 93.367188 235.250000 92.949219 235.050781 92.148438 C 234.816406 91.351562 234.484375 90.515625 234.050781 89.648438 C 233.316406 91.515625 232.398438 93.050781 231.300781 94.250000 C 230.199219 95.449219 229.214844 96.351562 228.351562 96.949219 C 227.449219 97.515625 226.964844 97.800781 226.898438 97.800781 C 227.800781 95.964844 228.300781 94.535156 228.398438 93.500000 C 228.535156 92.500000 228.566406 91.984375 228.500000 91.949219 C 226.000000 94.082031 223.632812 95.484375 221.398438 96.148438 C 219.199219 96.851562 217.167969 97.066406 215.300781 96.800781 C 213.464844 96.535156 211.882812 96.050781 210.550781 95.351562 C 209.214844 94.648438 208.183594 93.984375 207.449219 93.351562 C 206.714844 92.714844 206.351562 92.382812 206.351562 92.351562 C 210.015625 92.714844 213.316406 92.566406 216.250000 91.898438 C 219.214844 91.234375 221.816406 90.300781 224.050781 89.101562 C 226.285156 87.867188 228.148438 86.601562 229.648438 85.300781 C 231.148438 84.035156 232.285156 82.949219 233.050781 82.050781 C 233.816406 81.148438 234.199219 80.667969 234.199219 80.601562 C 234.265625 80.632812 234.515625 81.265625 234.949219 82.500000 C 235.417969 83.734375 235.765625 85.316406 236.000000 87.250000 C 236.234375 89.183594 236.015625 91.234375 235.351562 93.398438 M 242.449219 137.101562 C 242.484375 137.066406 242.933594 137.148438 243.800781 137.351562 C 244.632812 137.550781 245.582031 138.148438 246.648438 139.148438 C 247.714844 140.148438 248.601562 141.816406 249.300781 144.148438 C 250.167969 142.714844 251.035156 140.851562 251.898438 138.550781 C 252.765625 136.250000 253.417969 133.550781 253.851562 130.449219 C 254.285156 127.316406 254.316406 123.800781 253.949219 119.898438 C 253.984375 119.898438 254.148438 120.250000 254.449219 120.949219 C 253.417969 117.417969 253.035156 114.035156 253.300781 110.800781 C 252.433594 108.800781 252.000000 106.898438 252.000000 105.101562 C 251.964844 103.332031 252.250000 101.683594 252.851562 100.148438 C 253.417969 98.617188 254.167969 97.234375 255.101562 96.000000 C 253.300781 97.300781 251.867188 98.734375 250.800781 100.300781 C 249.734375 101.832031 248.949219 103.316406 248.449219 104.750000 C 247.917969 106.183594 247.566406 107.351562 247.398438 108.250000 C 247.265625 109.183594 247.199219 109.667969 247.199219 109.699219 C 246.601562 105.734375 246.734375 102.199219 247.601562 99.101562 C 248.464844 96.000000 249.785156 93.300781 251.550781 91.000000 C 253.316406 88.699219 255.250000 86.750000 257.351562 85.148438 C 259.449219 83.582031 261.449219 82.332031 263.351562 81.398438 C 260.417969 81.167969 257.683594 81.332031 255.148438 81.898438 C 252.582031 82.464844 250.250000 83.250000 248.148438 84.250000 C 246.082031 85.285156 244.300781 86.332031 242.800781 87.398438 C 241.300781 88.464844 240.132812 89.367188 239.300781 90.101562 C 238.500000 90.867188 238.101562 91.265625 238.101562 91.300781 C 238.265625 89.199219 238.648438 87.285156 239.250000 85.550781 C 239.882812 83.851562 240.648438 82.300781 241.550781 80.898438 C 240.917969 81.667969 240.582031 82.066406 240.550781 82.101562 C 241.449219 80.167969 242.035156 78.566406 242.300781 77.300781 C 242.601562 76.035156 242.714844 75.035156 242.648438 74.300781 C 242.550781 73.566406 242.382812 73.015625 242.148438 72.648438 C 241.250000 72.550781 240.117188 72.699219 238.750000 73.101562 C 237.351562 73.464844 235.714844 74.285156 233.851562 75.550781 C 232.183594 77.351562 230.449219 79.285156 228.648438 81.351562 L 228.648438 81.300781 C 227.683594 82.332031 226.632812 83.214844 225.500000 83.949219 C 224.367188 84.648438 223.285156 85.300781 222.250000 85.898438 C 219.984375 87.199219 217.632812 88.234375 215.199219 89.000000 C 212.800781 89.734375 210.351562 90.214844 207.851562 90.449219 C 206.617188 90.582031 205.382812 90.648438 204.148438 90.648438 L 203.449219 90.648438 L 203.300781 90.601562 L 203.250000 90.601562 C 203.250000 90.601562 203.250000 90.601562 203.250000 90.601562 L 203.250000 90.648438 L 203.300781 90.750000 C 203.300781 90.785156 203.316406 90.816406 203.351562 90.851562 C 203.382812 90.882812 203.515625 91.082031 203.750000 91.449219 C 204.582031 92.582031 205.515625 93.601562 206.550781 94.500000 C 207.582031 95.398438 208.699219 96.148438 209.898438 96.750000 C 211.132812 97.382812 212.382812 97.933594 213.648438 98.398438 C 216.351562 99.367188 218.882812 99.898438 221.250000 100.000000 C 223.582031 100.132812 225.648438 100.035156 227.449219 99.699219 C 229.250000 99.367188 230.648438 99.000000 231.648438 98.601562 C 232.648438 98.234375 233.167969 98.035156 233.199219 98.000000 C 233.132812 98.066406 233.117188 98.750000 233.148438 100.050781 C 233.183594 101.351562 233.550781 102.933594 234.250000 104.800781 C 234.984375 106.699219 236.332031 108.535156 238.300781 110.300781 C 239.464844 111.265625 240.714844 112.035156 242.050781 112.601562 C 243.382812 113.167969 244.617188 113.582031 245.750000 113.851562 C 246.917969 114.117188 247.832031 114.265625 248.500000 114.300781 C 247.832031 114.367188 246.851562 114.449219 245.550781 114.550781 C 244.214844 114.683594 242.734375 114.601562 241.101562 114.300781 C 239.433594 114.035156 237.734375 113.316406 236.000000 112.148438 C 234.699219 111.250000 233.648438 110.332031 232.851562 109.398438 C 232.050781 108.464844 231.417969 107.582031 230.949219 106.750000 C 230.882812 107.984375 230.949219 109.351562 231.148438 110.851562 C 232.984375 113.816406 235.015625 116.148438 237.250000 117.851562 C 239.484375 119.515625 241.632812 120.734375 243.699219 121.500000 C 245.765625 122.265625 247.464844 122.750000 248.800781 122.949219 C 250.132812 123.148438 250.816406 123.234375 250.851562 123.199219 C 249.050781 123.800781 247.433594 124.082031 246.000000 124.050781 C 244.566406 124.015625 243.332031 123.832031 242.300781 123.500000 C 241.300781 123.132812 240.535156 122.785156 240.000000 122.449219 C 239.464844 122.117188 239.183594 121.933594 239.148438 121.898438 C 239.882812 123.234375 240.867188 124.332031 242.101562 125.199219 C 242.464844 125.398438 242.832031 125.601562 243.199219 125.800781 C 243.199219 125.800781 243.148438 125.816406 243.050781 125.851562 C 244.515625 126.714844 246.015625 127.351562 247.550781 127.750000 C 249.050781 128.183594 250.332031 128.464844 251.398438 128.601562 C 252.433594 128.734375 252.964844 128.785156 253.000000 128.750000 C 249.765625 129.117188 246.949219 129.117188 244.550781 128.750000 C 242.148438 128.417969 240.117188 127.816406 238.449219 126.949219 C 237.015625 127.050781 235.464844 126.714844 233.800781 125.949219 C 232.132812 125.214844 230.515625 123.785156 228.949219 121.648438 C 228.816406 123.214844 229.015625 125.132812 229.550781 127.398438 C 230.050781 129.667969 231.183594 132.132812 232.949219 134.800781 C 234.714844 137.500000 237.398438 140.265625 241.000000 143.101562 C 240.933594 143.101562 240.265625 142.964844 239.000000 142.699219 C 237.734375 142.398438 236.214844 141.867188 234.449219 141.101562 C 233.683594 141.332031 232.617188 141.464844 231.250000 141.500000 C 229.917969 141.535156 228.515625 141.183594 227.050781 140.449219 C 225.582031 139.714844 224.285156 138.332031 223.148438 136.300781 C 223.683594 139.367188 224.617188 142.214844 225.949219 144.851562 C 227.285156 147.515625 228.832031 149.917969 230.601562 152.050781 C 232.332031 154.214844 234.082031 156.082031 235.851562 157.648438 C 237.617188 159.250000 239.167969 160.550781 240.500000 161.550781 C 241.000000 160.714844 241.582031 159.515625 242.250000 157.949219 C 242.917969 156.382812 243.464844 154.535156 243.898438 152.398438 C 244.332031 150.234375 244.484375 147.867188 244.351562 145.300781 C 244.183594 142.699219 243.550781 139.964844 242.449219 137.101562 "/>
    <path style="stroke:none;fill-rule:evenodd;fill:rgb(65.098039%,65.098039%,60.000000%);fill-opacity:1" d="M 228.199219 120.500000 C 228.199219 120.500000 228.148438 120.714844 228.050781 121.148438 C 228.117188 120.984375 228.199219 120.800781 228.300781 120.601562 C 228.265625 120.566406 228.234375 120.535156 228.199219 120.500000 "/>
    <path style="stroke:none;fill-rule:evenodd;fill:rgb(65.098039%,65.098039%,60.000000%);fill-opacity:1" d="M 260.500000 65.351562 L 260.351562 65.500000 C 260.917969 65.066406 261.351562 64.734375 261.648438 64.500000 C 261.484375 64.566406 261.433594 64.582031 261.500000 64.550781 C 262.035156 64.148438 262.300781 63.949219 262.300781 63.949219 C 262.300781 63.984375 262.082031 64.167969 261.648438 64.500000 C 261.949219 64.367188 262.398438 64.132812 263.000000 63.800781 C 263.601562 63.500000 264.167969 63.199219 264.699219 62.898438 C 265.234375 62.632812 265.582031 62.464844 265.750000 62.398438 C 266.949219 61.765625 267.917969 61.285156 268.648438 60.949219 C 267.417969 61.382812 266.550781 61.367188 266.050781 60.898438 C 265.550781 60.464844 265.265625 59.882812 265.199219 59.148438 C 265.132812 58.417969 265.132812 57.851562 265.199219 57.449219 C 264.898438 57.714844 264.601562 57.984375 264.300781 58.250000 C 264.132812 58.417969 263.964844 58.566406 263.800781 58.699219 C 263.332031 59.132812 262.882812 59.535156 262.449219 59.898438 C 262.214844 60.101562 262.000000 60.300781 261.800781 60.500000 C 261.566406 60.667969 261.351562 60.851562 261.148438 61.050781 C 260.917969 61.250000 260.699219 61.433594 260.500000 61.601562 C 260.300781 61.765625 260.117188 61.917969 259.949219 62.050781 C 259.714844 62.250000 259.500000 62.433594 259.300781 62.601562 C 259.132812 62.734375 258.964844 62.867188 258.800781 63.000000 C 258.601562 63.167969 258.398438 63.332031 258.199219 63.500000 C 258.066406 63.632812 257.917969 63.750000 257.750000 63.851562 C 257.550781 64.015625 257.367188 64.167969 257.199219 64.300781 C 257.035156 64.433594 256.882812 64.550781 256.750000 64.648438 C 256.582031 64.785156 256.417969 64.917969 256.250000 65.050781 C 256.117188 65.148438 255.984375 65.250000 255.851562 65.351562 C 255.683594 65.449219 255.515625 65.566406 255.351562 65.699219 C 255.250000 65.765625 255.132812 65.851562 255.000000 65.949219 C 254.867188 66.050781 254.714844 66.167969 254.550781 66.300781 C 254.449219 66.367188 254.351562 66.433594 254.250000 66.500000 C 254.117188 66.601562 253.964844 66.699219 253.800781 66.800781 C 253.734375 66.867188 253.648438 66.933594 253.550781 67.000000 C 253.417969 67.066406 253.285156 67.148438 253.148438 67.250000 C 253.050781 67.285156 252.964844 67.332031 252.898438 67.398438 C 252.765625 67.464844 252.632812 67.550781 252.500000 67.648438 C 252.433594 67.683594 252.367188 67.714844 252.300781 67.750000 C 252.199219 67.816406 252.117188 67.867188 252.050781 67.898438 C 252.148438 68.500000 252.617188 68.714844 253.449219 68.550781 C 254.285156 68.382812 255.250000 68.050781 256.351562 67.550781 C 257.417969 67.050781 258.367188 66.566406 259.199219 66.101562 C 260.000000 65.632812 260.433594 65.382812 260.500000 65.351562 "/>
    <path style="stroke:none;fill-rule:evenodd;fill:rgb(93.725490%,93.725490%,91.764706%);fill-opacity:1" d="M 243.250000 125.750000 C 242.851562 125.582031 242.464844 125.398438 242.101562 125.199219 C 242.433594 125.433594 242.765625 125.648438 243.101562 125.851562 C 243.167969 125.785156 243.214844 125.750000 243.250000 125.750000 "/>
    <path style="stroke:none;fill-rule:evenodd;fill:rgb(93.725490%,93.725490%,91.764706%);fill-opacity:1" d="M 234.500000 141.050781 C 233.066406 140.417969 231.683594 139.566406 230.351562 138.500000 C 229.050781 137.433594 227.984375 136.101562 227.148438 134.500000 C 226.316406 132.933594 225.933594 131.050781 226.000000 128.851562 C 226.066406 126.617188 226.765625 124.050781 228.101562 121.148438 C 228.199219 120.714844 228.250000 120.500000 228.250000 120.500000 C 228.285156 120.535156 228.316406 120.566406 228.351562 120.601562 C 228.714844 119.832031 229.132812 119.035156 229.601562 118.199219 C 229.601562 118.234375 229.515625 118.550781 229.351562 119.148438 C 229.214844 119.714844 229.101562 120.550781 229.000000 121.648438 C 230.566406 123.785156 232.183594 125.214844 233.851562 125.949219 C 235.515625 126.683594 237.066406 127.015625 238.500000 126.949219 C 235.964844 125.617188 234.082031 123.949219 232.851562 121.949219 C 231.617188 119.949219 230.816406 117.964844 230.449219 116.000000 C 230.082031 114.000000 229.933594 112.332031 230.000000 111.000000 C 230.035156 109.632812 230.066406 108.933594 230.101562 108.898438 C 230.464844 109.566406 230.832031 110.214844 231.199219 110.851562 C 230.964844 109.316406 230.898438 107.949219 231.000000 106.750000 C 230.398438 105.617188 230.000000 104.714844 229.800781 104.050781 C 227.300781 106.183594 225.464844 108.367188 224.300781 110.601562 C 223.132812 112.832031 222.382812 114.917969 222.050781 116.851562 C 221.750000 118.785156 221.648438 120.351562 221.750000 121.550781 C 221.816406 122.750000 221.867188 123.367188 221.898438 123.398438 C 220.765625 122.734375 219.933594 121.832031 219.398438 120.699219 C 218.898438 119.566406 218.582031 118.535156 218.449219 117.601562 C 218.316406 116.667969 218.250000 116.183594 218.250000 116.148438 C 216.648438 118.582031 215.617188 120.832031 215.148438 122.898438 C 214.683594 124.964844 214.535156 126.785156 214.699219 128.351562 C 214.898438 129.882812 215.183594 131.082031 215.550781 131.949219 C 215.917969 132.785156 216.117188 133.214844 216.148438 133.250000 C 214.648438 132.382812 213.367188 131.433594 212.300781 130.398438 C 211.199219 129.367188 210.316406 128.398438 209.648438 127.500000 C 210.050781 130.132812 210.734375 132.515625 211.699219 134.648438 C 212.667969 136.785156 213.714844 138.617188 214.851562 140.148438 C 215.949219 141.714844 216.898438 142.898438 217.699219 143.699219 C 218.500000 144.535156 218.917969 144.949219 218.949219 144.949219 C 218.851562 142.449219 219.117188 140.234375 219.750000 138.300781 C 220.382812 136.367188 221.035156 134.851562 221.699219 133.750000 C 222.398438 132.648438 222.785156 132.082031 222.851562 132.050781 C 222.851562 133.515625 222.949219 134.933594 223.148438 136.300781 C 224.316406 138.332031 225.632812 139.714844 227.101562 140.449219 C 228.566406 141.183594 229.964844 141.535156 231.300781 141.500000 C 232.632812 141.464844 233.699219 141.316406 234.500000 141.050781 "/>
    <path style="stroke:none;fill-rule:evenodd;fill:rgb(93.725490%,93.725490%,91.764706%);fill-opacity:1" d="M 242.148438 72.648438 C 241.984375 72.382812 241.816406 72.199219 241.648438 72.101562 C 241.515625 71.964844 241.449219 71.917969 241.449219 71.949219 C 243.550781 71.617188 245.066406 71.167969 246.000000 70.601562 C 246.964844 70.066406 247.566406 69.515625 247.800781 68.949219 C 248.066406 68.417969 248.167969 68.000000 248.101562 67.699219 C 247.933594 67.265625 247.785156 66.964844 247.648438 66.800781 C 247.515625 66.601562 247.433594 66.500000 247.398438 66.500000 C 245.265625 66.566406 243.082031 67.417969 240.851562 69.050781 C 238.617188 70.714844 236.285156 72.867188 233.851562 75.500000 C 235.714844 74.234375 237.351562 73.417969 238.750000 73.050781 C 240.117188 72.683594 241.250000 72.550781 242.148438 72.648438 "/>
    <path style="stroke:none;fill-rule:evenodd;fill:rgb(93.725490%,93.725490%,91.764706%);fill-opacity:1" d="M 283.800781 76.398438 C 282.000000 78.632812 280.234375 80.132812 278.500000 80.898438 C 276.734375 81.699219 275.148438 82.050781 273.750000 81.949219 C 272.316406 81.882812 271.167969 81.667969 270.300781 81.300781 C 269.464844 80.964844 269.035156 80.765625 269.000000 80.699219 C 268.734375 80.398438 268.550781 80.035156 268.449219 79.601562 C 268.285156 78.765625 268.300781 77.882812 268.500000 76.949219 C 268.734375 76.015625 269.015625 75.250000 269.351562 74.648438 C 271.382812 70.617188 272.699219 67.316406 273.300781 64.750000 C 273.699219 63.285156 273.433594 62.148438 272.500000 61.351562 C 271.601562 60.515625 270.351562 60.382812 268.750000 60.949219 C 268.714844 60.949219 268.683594 60.949219 268.648438 60.949219 C 267.917969 61.316406 266.933594 61.816406 265.699219 62.449219 C 265.765625 62.417969 265.765625 62.417969 265.699219 62.449219 C 263.632812 63.851562 261.984375 65.367188 260.750000 67.000000 C 259.550781 68.601562 258.648438 70.132812 258.050781 71.601562 C 257.484375 73.066406 257.117188 74.265625 256.949219 75.199219 C 256.785156 76.132812 256.699219 76.617188 256.699219 76.648438 C 255.433594 75.785156 254.148438 75.285156 252.851562 75.148438 C 251.550781 75.050781 250.316406 75.167969 249.148438 75.500000 C 247.984375 75.832031 246.984375 76.234375 246.148438 76.699219 C 245.148438 77.433594 244.250000 78.167969 243.449219 78.898438 C 242.683594 79.667969 242.050781 80.332031 241.550781 80.898438 C 240.648438 82.265625 239.882812 83.816406 239.250000 85.550781 C 238.648438 87.285156 238.265625 89.183594 238.101562 91.250000 C 238.101562 91.214844 238.515625 90.832031 239.351562 90.101562 C 240.148438 89.367188 241.300781 88.464844 242.800781 87.398438 C 244.300781 86.300781 246.082031 85.250000 248.148438 84.250000 C 250.250000 83.250000 252.566406 82.449219 255.101562 81.851562 C 257.667969 81.285156 260.417969 81.132812 263.351562 81.398438 C 261.484375 82.332031 259.484375 83.582031 257.351562 85.148438 C 255.250000 86.714844 253.316406 88.648438 251.550781 90.949219 C 249.785156 93.250000 248.464844 95.949219 247.601562 99.050781 C 246.734375 102.148438 246.601562 105.683594 247.199219 109.648438 C 247.199219 109.617188 247.265625 109.148438 247.398438 108.250000 C 247.566406 107.316406 247.917969 106.148438 248.449219 104.750000 C 248.949219 103.316406 249.734375 101.816406 250.800781 100.250000 C 251.867188 98.714844 253.300781 97.285156 255.101562 95.949219 C 256.332031 94.351562 257.617188 92.984375 258.949219 91.851562 C 260.285156 90.714844 261.433594 89.867188 262.398438 89.300781 C 263.332031 88.699219 263.832031 88.398438 263.898438 88.398438 C 262.066406 90.535156 260.832031 92.898438 260.199219 95.500000 C 259.535156 98.101562 259.250000 100.601562 259.351562 103.000000 C 259.417969 105.433594 259.601562 107.433594 259.898438 109.000000 C 260.199219 110.566406 260.367188 111.382812 260.398438 111.449219 C 259.234375 110.785156 258.367188 109.898438 257.800781 108.800781 C 257.199219 107.699219 256.800781 106.582031 256.601562 105.449219 C 256.398438 104.351562 256.300781 103.398438 256.300781 102.601562 C 256.300781 101.832031 256.316406 101.433594 256.351562 101.398438 C 255.785156 102.601562 255.398438 103.898438 255.199219 105.300781 C 254.964844 106.734375 254.851562 108.101562 254.851562 109.398438 C 254.816406 110.699219 254.832031 111.785156 254.898438 112.648438 C 254.964844 113.484375 255.000000 113.917969 255.000000 113.949219 C 254.300781 112.851562 253.734375 111.800781 253.300781 110.800781 C 253.035156 114.000000 253.417969 117.367188 254.449219 120.898438 C 254.785156 121.601562 255.183594 122.566406 255.648438 123.800781 C 256.382812 124.964844 257.265625 126.015625 258.300781 126.949219 C 259.367188 127.851562 260.417969 128.617188 261.449219 129.250000 C 262.515625 129.882812 263.398438 130.367188 264.101562 130.699219 C 264.800781 131.035156 265.167969 131.199219 265.199219 131.199219 C 263.398438 128.535156 262.234375 125.964844 261.699219 123.500000 C 261.199219 121.035156 261.000000 119.000000 261.101562 117.398438 C 261.234375 115.800781 261.316406 114.964844 261.351562 114.898438 C 262.050781 116.265625 262.816406 117.183594 263.648438 117.648438 C 264.449219 118.082031 265.148438 118.285156 265.750000 118.250000 C 266.316406 118.214844 266.617188 118.183594 266.648438 118.148438 C 265.816406 114.417969 265.398438 111.183594 265.398438 108.449219 C 265.398438 105.714844 265.648438 103.449219 266.148438 101.648438 C 266.617188 99.816406 267.148438 98.382812 267.750000 97.351562 C 268.316406 96.351562 268.750000 95.699219 269.050781 95.398438 C 267.917969 94.832031 267.050781 94.265625 266.449219 93.699219 C 265.851562 93.132812 265.550781 92.832031 265.550781 92.800781 C 267.949219 92.964844 270.101562 92.734375 272.000000 92.101562 C 273.898438 91.464844 275.515625 90.683594 276.851562 89.750000 C 278.214844 88.851562 279.250000 88.035156 279.949219 87.300781 C 280.648438 86.601562 281.000000 86.214844 281.000000 86.148438 C 281.035156 86.117188 281.316406 85.785156 281.851562 85.148438 C 282.382812 84.484375 282.949219 83.632812 283.550781 82.601562 C 284.117188 81.566406 284.464844 80.500000 284.601562 79.398438 C 284.765625 78.300781 284.500000 77.300781 283.800781 76.398438 "/>
    <path style="stroke:none;fill-rule:evenodd;fill:rgb(65.098039%,65.098039%,60.000000%);fill-opacity:1" d="M 261.500000 64.550781 C 261.398438 64.617188 261.449219 64.601562 261.648438 64.500000 C 262.082031 64.167969 262.300781 64.000000 262.300781 64.000000 C 262.265625 64.000000 262.000000 64.183594 261.500000 64.550781 "/>
    <path style="stroke:none;fill-rule:evenodd;fill:rgb(65.098039%,65.098039%,60.000000%);fill-opacity:1" d="M 256.750000 76.601562 C 256.714844 76.566406 256.785156 76.082031 256.949219 75.148438 C 257.117188 74.214844 257.500000 73.035156 258.101562 71.601562 C 258.667969 70.132812 259.566406 68.582031 260.800781 66.949219 C 262.035156 65.351562 263.683594 63.832031 265.750000 62.398438 C 265.785156 62.398438 265.785156 62.398438 265.750000 62.398438 C 265.617188 62.464844 265.265625 62.632812 264.699219 62.898438 C 264.167969 63.199219 263.601562 63.500000 263.000000 63.800781 C 262.398438 64.101562 261.949219 64.332031 261.648438 64.500000 C 261.351562 64.734375 260.917969 65.066406 260.351562 65.500000 L 253.101562 73.949219 C 251.832031 74.015625 250.617188 74.316406 249.449219 74.851562 C 248.250000 75.351562 247.148438 75.964844 246.148438 76.699219 C 247.015625 76.234375 248.035156 75.832031 249.199219 75.500000 C 250.332031 75.167969 251.550781 75.050781 252.851562 75.148438 C 254.148438 75.250000 255.449219 75.734375 256.750000 76.601562 "/>
    <path style="stroke:none;fill-rule:evenodd;fill:rgb(0.000000%,0.000000%,0.000000%);fill-opacity:1" d="M 206.351562 92.351562 C 206.351562 92.382812 206.714844 92.714844 207.449219 93.351562 C 208.183594 93.949219 209.234375 94.601562 210.601562 95.300781 C 211.933594 96.000000 213.515625 96.484375 215.351562 96.750000 C 217.183594 97.015625 219.214844 96.816406 221.449219 96.148438 C 223.683594 95.484375 226.050781 94.082031 228.550781 91.949219 C 228.582031 91.949219 228.550781 92.464844 228.449219 93.500000 C 228.351562 94.500000 227.851562 95.933594 226.949219 97.800781 C 227.015625 97.800781 227.484375 97.500000 228.351562 96.898438 C 229.250000 96.332031 230.250000 95.449219 231.351562 94.250000 C 232.449219 93.015625 233.367188 91.484375 234.101562 89.648438 C 234.535156 90.515625 234.851562 91.351562 235.050781 92.148438 C 235.285156 92.917969 235.398438 93.332031 235.398438 93.398438 C 236.035156 91.234375 236.250000 89.183594 236.050781 87.250000 C 235.816406 85.316406 235.464844 83.734375 235.000000 82.500000 C 234.535156 81.265625 234.265625 80.632812 234.199219 80.601562 C 234.199219 80.632812 233.816406 81.101562 233.050781 82.000000 C 232.316406 82.898438 231.183594 84.000000 229.648438 85.300781 C 228.148438 86.601562 226.285156 87.851562 224.050781 89.050781 C 221.816406 90.285156 219.214844 91.234375 216.250000 91.898438 C 213.316406 92.535156 210.015625 92.683594 206.351562 92.351562 "/>
    <path style="stroke:none;fill-rule:evenodd;fill:rgb(0.000000%,0.000000%,0.000000%);fill-opacity:1" d="M 242.101562 125.199219 C 240.867188 124.367188 239.898438 123.265625 239.199219 121.898438 C 239.199219 121.933594 239.464844 122.117188 240.000000 122.449219 C 240.535156 122.785156 241.316406 123.132812 242.351562 123.500000 C 243.351562 123.832031 244.566406 124.015625 246.000000 124.050781 C 247.433594 124.082031 249.050781 123.800781 250.851562 123.199219 C 250.816406 123.234375 250.132812 123.148438 248.800781 122.949219 C 247.464844 122.750000 245.765625 122.265625 243.699219 121.500000 C 241.632812 120.765625 239.484375 119.550781 237.250000 117.851562 C 235.015625 116.148438 232.984375 113.816406 231.148438 110.851562 C 230.785156 110.250000 230.433594 109.601562 230.101562 108.898438 C 230.066406 108.964844 230.015625 109.667969 229.949219 111.000000 C 229.882812 112.332031 230.035156 114.000000 230.398438 116.000000 C 230.765625 118.000000 231.566406 119.984375 232.800781 121.949219 C 234.035156 123.949219 235.917969 125.617188 238.449219 126.949219 C 240.117188 127.816406 242.148438 128.417969 244.550781 128.750000 C 246.949219 129.117188 249.765625 129.117188 253.000000 128.750000 C 252.964844 128.785156 252.433594 128.734375 251.398438 128.601562 C 250.367188 128.464844 249.082031 128.183594 247.550781 127.750000 C 246.050781 127.351562 244.566406 126.714844 243.101562 125.851562 C 242.734375 125.648438 242.398438 125.433594 242.101562 125.199219 "/>
    <path style="stroke:none;fill-rule:evenodd;fill:rgb(0.000000%,0.000000%,0.000000%);fill-opacity:1" d="M 229.000000 121.648438 C 229.066406 120.550781 229.183594 119.699219 229.351562 119.101562 C 229.484375 118.500000 229.566406 118.199219 229.601562 118.199219 C 229.101562 119.035156 228.667969 119.832031 228.300781 120.601562 C 228.234375 120.765625 228.148438 120.949219 228.050781 121.148438 C 226.714844 124.050781 226.015625 126.601562 225.949219 128.800781 C 225.882812 131.035156 226.265625 132.933594 227.101562 134.500000 C 227.933594 136.101562 229.015625 137.433594 230.351562 138.500000 C 231.648438 139.566406 233.015625 140.417969 234.449219 141.050781 C 236.214844 141.816406 237.734375 142.351562 239.000000 142.648438 C 240.265625 142.949219 240.933594 143.082031 241.000000 143.050781 C 237.398438 140.214844 234.714844 137.464844 232.949219 134.800781 C 231.183594 132.101562 230.050781 129.617188 229.550781 127.351562 C 229.050781 125.082031 228.867188 123.183594 229.000000 121.648438 "/>
    <path style="stroke:none;fill-rule:evenodd;fill:rgb(0.000000%,0.000000%,0.000000%);fill-opacity:1" d="M 206.750000 105.601562 C 208.917969 108.667969 211.000000 110.699219 213.000000 111.699219 C 214.964844 112.699219 216.800781 113.015625 218.500000 112.648438 C 220.167969 112.285156 221.617188 111.617188 222.851562 110.648438 C 224.082031 109.648438 225.050781 108.714844 225.750000 107.851562 C 226.449219 106.949219 226.800781 106.464844 226.800781 106.398438 C 224.398438 107.964844 222.015625 108.851562 219.648438 109.050781 C 217.285156 109.214844 215.132812 109.015625 213.199219 108.449219 C 211.265625 107.882812 209.714844 107.285156 208.550781 106.648438 C 207.382812 106.015625 206.785156 105.667969 206.750000 105.601562 "/>
    <path style="stroke:none;fill-rule:evenodd;fill:rgb(45.098039%,1.960784%,0.000000%);fill-opacity:1" d="M 255.101562 95.949219 C 254.167969 97.214844 253.417969 98.617188 252.851562 100.148438 C 252.285156 101.648438 252.000000 103.300781 252.000000 105.101562 C 252.035156 106.867188 252.464844 108.765625 253.300781 110.800781 C 253.734375 111.800781 254.300781 112.832031 255.000000 113.898438 C 255.000000 113.867188 254.964844 113.433594 254.898438 112.601562 C 254.832031 111.765625 254.816406 110.699219 254.851562 109.398438 C 254.851562 108.101562 254.964844 106.734375 255.199219 105.300781 C 255.398438 103.898438 255.785156 102.601562 256.351562 101.398438 C 256.316406 101.433594 256.300781 101.832031 256.300781 102.601562 C 256.300781 103.367188 256.398438 104.316406 256.601562 105.449219 C 256.800781 106.582031 257.199219 107.699219 257.800781 108.800781 C 258.367188 109.867188 259.234375 110.734375 260.398438 111.398438 C 260.367188 111.367188 260.199219 110.566406 259.898438 109.000000 C 259.601562 107.433594 259.398438 105.433594 259.300781 103.000000 C 259.234375 100.601562 259.515625 98.101562 260.148438 95.500000 C 260.785156 92.898438 262.035156 90.535156 263.898438 88.398438 C 263.867188 88.398438 263.367188 88.699219 262.398438 89.300781 C 261.433594 89.867188 260.285156 90.714844 258.949219 91.851562 C 257.617188 92.984375 256.332031 94.351562 255.101562 95.949219 "/>
    <path style="stroke:none;fill-rule:evenodd;fill:rgb(0.000000%,0.000000%,0.000000%);fill-opacity:1" d="M 266.648438 118.148438 C 266.617188 118.183594 266.316406 118.214844 265.750000 118.250000 C 265.148438 118.285156 264.449219 118.082031 263.648438 117.648438 C 262.816406 117.214844 262.050781 116.300781 261.351562 114.898438 C 261.285156 114.964844 261.199219 115.800781 261.101562 117.398438 C 261.000000 119.000000 261.199219 121.035156 261.699219 123.500000 C 262.234375 125.964844 263.398438 128.535156 265.199219 131.199219 C 265.167969 131.199219 264.800781 131.035156 264.101562 130.699219 C 263.398438 130.367188 262.515625 129.882812 261.449219 129.250000 C 260.417969 128.617188 259.367188 127.851562 258.300781 126.949219 C 257.265625 126.015625 256.382812 124.964844 255.648438 123.800781 C 255.183594 122.566406 254.785156 121.601562 254.449219 120.898438 C 254.148438 120.234375 254.000000 119.882812 254.000000 119.851562 C 254.367188 123.785156 254.316406 127.300781 253.851562 130.398438 C 253.417969 133.535156 252.765625 136.250000 251.898438 138.550781 C 251.035156 140.816406 250.167969 142.683594 249.300781 144.148438 C 248.601562 141.785156 247.714844 140.101562 246.648438 139.101562 C 245.617188 138.132812 244.667969 137.550781 243.800781 137.351562 C 242.964844 137.148438 242.515625 137.066406 242.449219 137.101562 C 243.550781 139.964844 244.183594 142.683594 244.351562 145.250000 C 244.484375 147.851562 244.332031 150.214844 243.898438 152.351562 C 243.464844 154.515625 242.917969 156.367188 242.250000 157.898438 C 241.617188 159.464844 241.035156 160.683594 240.500000 161.550781 C 239.167969 160.550781 237.617188 159.250000 235.851562 157.648438 C 234.082031 156.050781 232.332031 154.183594 230.601562 152.050781 C 228.832031 149.882812 227.285156 147.484375 225.949219 144.851562 C 224.582031 142.214844 223.648438 139.367188 223.148438 136.300781 C 222.917969 134.933594 222.800781 133.515625 222.800781 132.050781 C 222.734375 132.082031 222.367188 132.648438 221.699219 133.750000 C 221.000000 134.851562 220.332031 136.367188 219.699219 138.300781 C 219.066406 140.234375 218.816406 142.449219 218.949219 144.949219 C 218.917969 144.949219 218.500000 144.535156 217.699219 143.699219 C 216.867188 142.898438 215.898438 141.714844 214.800781 140.148438 C 213.699219 138.617188 212.648438 136.785156 211.648438 134.648438 C 210.683594 132.515625 210.000000 130.132812 209.601562 127.500000 C 209.398438 125.898438 209.351562 124.214844 209.449219 122.449219 C 209.417969 122.515625 208.601562 122.648438 207.000000 122.851562 C 205.433594 123.082031 203.332031 123.050781 200.699219 122.750000 C 198.035156 122.449219 195.101562 121.535156 191.898438 120.000000 C 188.699219 118.464844 185.484375 115.984375 182.250000 112.550781 C 182.285156 112.550781 182.832031 112.601562 183.898438 112.699219 C 184.964844 112.765625 186.382812 112.750000 188.148438 112.648438 C 189.882812 112.550781 191.785156 112.234375 193.851562 111.699219 C 195.949219 111.167969 198.015625 110.285156 200.050781 109.050781 C 199.984375 109.082031 199.382812 108.984375 198.250000 108.750000 C 197.082031 108.515625 195.699219 107.832031 194.101562 106.699219 C 194.132812 106.734375 194.750000 106.648438 195.949219 106.449219 C 197.183594 106.285156 198.800781 105.867188 200.800781 105.199219 C 202.832031 104.535156 205.082031 103.464844 207.550781 102.000000 C 209.582031 103.300781 211.851562 104.132812 214.351562 104.500000 C 216.851562 104.832031 219.265625 104.933594 221.601562 104.800781 C 223.898438 104.632812 225.800781 104.398438 227.300781 104.101562 C 228.800781 103.800781 229.582031 103.632812 229.648438 103.601562 C 229.683594 103.734375 229.734375 103.882812 229.800781 104.050781 C 229.964844 104.714844 230.351562 105.617188 230.949219 106.750000 C 231.417969 107.582031 232.050781 108.449219 232.851562 109.351562 C 233.683594 110.285156 234.734375 111.214844 236.000000 112.148438 C 237.734375 113.285156 239.433594 114.000000 241.101562 114.300781 C 242.765625 114.566406 244.250000 114.648438 245.550781 114.550781 C 246.851562 114.417969 247.832031 114.316406 248.500000 114.250000 C 247.832031 114.214844 246.917969 114.082031 245.750000 113.851562 C 244.617188 113.582031 243.382812 113.148438 242.050781 112.550781 C 240.750000 111.984375 239.500000 111.214844 238.300781 110.250000 C 236.332031 108.484375 234.984375 106.667969 234.250000 104.800781 C 233.550781 102.933594 233.183594 101.332031 233.148438 100.000000 C 233.117188 98.699219 233.132812 98.015625 233.199219 97.949219 C 233.167969 97.984375 232.648438 98.199219 231.648438 98.601562 C 230.648438 98.964844 229.250000 99.316406 227.449219 99.648438 C 225.648438 99.984375 223.582031 100.101562 221.250000 100.000000 C 218.882812 99.867188 216.351562 99.316406 213.648438 98.351562 C 212.382812 97.882812 211.132812 97.351562 209.898438 96.750000 C 208.699219 96.117188 207.582031 95.351562 206.550781 94.449219 C 205.515625 93.550781 204.582031 92.550781 203.750000 91.449219 C 203.484375 91.082031 203.351562 90.882812 203.351562 90.851562 C 203.351562 90.816406 203.332031 90.785156 203.300781 90.750000 L 203.250000 90.648438 L 203.250000 90.601562 C 203.250000 90.601562 203.250000 90.601562 203.250000 90.601562 L 204.148438 90.601562 C 205.382812 90.632812 206.617188 90.582031 207.851562 90.449219 C 210.351562 90.214844 212.816406 89.714844 215.250000 88.949219 C 217.648438 88.214844 219.984375 87.183594 222.250000 85.851562 C 223.285156 85.250000 224.367188 84.601562 225.500000 83.898438 C 226.632812 83.199219 227.683594 82.332031 228.648438 81.300781 L 228.648438 81.351562 C 230.449219 79.250000 232.183594 77.316406 233.851562 75.550781 C 236.285156 72.882812 238.617188 70.734375 240.851562 69.101562 C 243.117188 67.433594 245.316406 66.566406 247.449219 66.500000 C 247.449219 66.500000 247.515625 66.601562 247.648438 66.800781 C 247.785156 67.000000 247.933594 67.300781 248.101562 67.699219 C 248.167969 68.000000 248.082031 68.417969 247.851562 68.949219 C 247.582031 69.515625 246.964844 70.066406 246.000000 70.601562 C 245.066406 71.167969 243.550781 71.617188 241.449219 71.949219 C 241.449219 71.949219 241.515625 72.000000 241.648438 72.101562 C 241.816406 72.199219 241.984375 72.382812 242.148438 72.648438 C 242.382812 72.984375 242.550781 73.535156 242.648438 74.300781 C 242.714844 75.035156 242.617188 76.035156 242.351562 77.300781 C 242.050781 78.566406 241.449219 80.167969 240.550781 82.101562 C 240.582031 82.035156 240.917969 81.632812 241.550781 80.898438 C 242.050781 80.332031 242.683594 79.667969 243.449219 78.898438 C 244.214844 78.167969 245.117188 77.433594 246.148438 76.699219 C 247.148438 75.964844 248.234375 75.351562 249.398438 74.851562 C 250.566406 74.351562 251.785156 74.050781 253.050781 73.949219 L 260.351562 65.500000 L 260.449219 65.351562 C 260.417969 65.382812 260.000000 65.632812 259.199219 66.101562 C 258.367188 66.566406 257.417969 67.050781 256.351562 67.550781 C 255.250000 68.082031 254.285156 68.417969 253.449219 68.550781 C 252.617188 68.714844 252.148438 68.515625 252.050781 67.949219 C 252.050781 67.949219 252.050781 67.949219 252.050781 67.949219 C 252.117188 67.882812 252.199219 67.832031 252.300781 67.800781 C 252.367188 67.734375 252.433594 67.683594 252.500000 67.648438 C 252.632812 67.582031 252.765625 67.500000 252.898438 67.398438 C 252.964844 67.367188 253.050781 67.316406 253.148438 67.250000 C 253.250000 67.183594 253.382812 67.101562 253.550781 67.000000 C 253.617188 66.933594 253.699219 66.867188 253.800781 66.800781 C 253.933594 66.699219 254.082031 66.601562 254.250000 66.500000 C 254.351562 66.433594 254.449219 66.367188 254.550781 66.300781 C 254.683594 66.199219 254.832031 66.082031 255.000000 65.949219 C 255.132812 65.882812 255.250000 65.800781 255.351562 65.699219 C 255.515625 65.601562 255.683594 65.484375 255.851562 65.351562 C 255.984375 65.250000 256.117188 65.148438 256.250000 65.050781 C 256.417969 64.917969 256.582031 64.785156 256.750000 64.648438 C 256.882812 64.550781 257.035156 64.449219 257.199219 64.351562 C 257.367188 64.183594 257.550781 64.035156 257.750000 63.898438 C 257.882812 63.765625 258.035156 63.632812 258.199219 63.500000 C 258.398438 63.367188 258.601562 63.214844 258.800781 63.050781 C 258.964844 62.882812 259.132812 62.734375 259.300781 62.601562 C 259.500000 62.433594 259.714844 62.265625 259.949219 62.101562 C 260.117188 61.933594 260.285156 61.765625 260.449219 61.601562 C 260.683594 61.433594 260.917969 61.250000 261.148438 61.050781 C 261.351562 60.882812 261.550781 60.699219 261.750000 60.500000 C 261.984375 60.332031 262.214844 60.148438 262.449219 59.949219 C 262.882812 59.550781 263.332031 59.148438 263.800781 58.750000 C 263.964844 58.582031 264.132812 58.417969 264.300781 58.250000 C 264.601562 58.015625 264.898438 57.750000 265.199219 57.449219 C 265.132812 57.851562 265.132812 58.417969 265.199219 59.148438 C 265.265625 59.882812 265.550781 60.484375 266.050781 60.949219 C 266.550781 61.382812 267.417969 61.382812 268.648438 60.949219 C 268.683594 60.949219 268.714844 60.949219 268.750000 60.949219 C 270.351562 60.382812 271.601562 60.515625 272.500000 61.351562 C 273.433594 62.148438 273.699219 63.285156 273.300781 64.750000 C 272.699219 67.316406 271.382812 70.617188 269.351562 74.648438 C 269.015625 75.250000 268.750000 76.015625 268.550781 76.949219 C 268.316406 77.882812 268.285156 78.765625 268.449219 79.601562 C 268.550781 80.035156 268.734375 80.398438 269.000000 80.699219 C 269.035156 80.765625 269.464844 80.964844 270.300781 81.300781 C 271.167969 81.667969 272.316406 81.882812 273.750000 81.949219 C 275.148438 82.050781 276.734375 81.699219 278.500000 80.898438 C 280.234375 80.132812 282.000000 78.632812 283.800781 76.398438 C 284.500000 77.300781 284.785156 78.300781 284.648438 79.398438 C 284.484375 80.500000 284.117188 81.566406 283.550781 82.601562 C 282.984375 83.632812 282.433594 84.484375 281.898438 85.148438 C 281.367188 85.816406 281.066406 86.148438 281.000000 86.148438 C 281.000000 86.183594 280.648438 86.566406 279.949219 87.300781 C 279.250000 88.035156 278.214844 88.851562 276.851562 89.750000 C 275.515625 90.683594 273.898438 91.464844 272.000000 92.101562 C 270.101562 92.699219 267.949219 92.933594 265.550781 92.800781 C 265.550781 92.832031 265.851562 93.132812 266.449219 93.699219 C 267.050781 94.265625 267.917969 94.832031 269.050781 95.398438 C 268.750000 95.699219 268.316406 96.351562 267.750000 97.351562 C 267.148438 98.382812 266.617188 99.816406 266.148438 101.648438 C 265.648438 103.449219 265.398438 105.714844 265.398438 108.449219 C 265.398438 111.183594 265.816406 114.417969 266.648438 118.148438 M 284.250000 70.500000 C 284.214844 70.566406 283.867188 71.066406 283.199219 72.000000 C 282.535156 72.964844 281.601562 74.015625 280.398438 75.148438 C 279.234375 76.285156 277.882812 77.148438 276.351562 77.750000 C 274.851562 78.382812 273.234375 78.398438 271.500000 77.800781 C 276.535156 69.199219 278.132812 62.265625 276.300781 57.000000 C 275.667969 55.332031 274.867188 54.035156 273.898438 53.101562 C 272.964844 52.167969 272.101562 51.500000 271.300781 51.101562 C 270.500000 50.699219 270.000000 50.484375 269.800781 50.449219 L 267.648438 49.800781 L 265.949219 51.351562 C 261.750000 55.285156 258.417969 58.250000 255.949219 60.250000 C 253.515625 62.214844 251.750000 63.535156 250.648438 64.199219 C 250.449219 63.933594 250.285156 63.750000 250.148438 63.648438 L 249.000000 62.550781 L 247.351562 62.550781 C 244.949219 62.617188 242.617188 63.332031 240.351562 64.699219 C 238.117188 66.035156 235.851562 67.851562 233.550781 70.148438 C 231.250000 72.484375 228.832031 75.101562 226.300781 78.000000 C 225.500000 78.832031 224.566406 79.667969 223.500000 80.500000 C 222.433594 81.367188 221.382812 82.101562 220.351562 82.699219 C 218.382812 83.898438 216.316406 84.851562 214.148438 85.550781 C 211.949219 86.250000 209.734375 86.734375 207.500000 87.000000 C 206.367188 87.101562 205.234375 87.167969 204.101562 87.199219 L 202.148438 87.199219 L 201.250000 87.148438 L 197.800781 86.949219 L 197.949219 87.351562 L 198.148438 87.750000 L 198.500000 88.648438 C 198.699219 89.183594 198.949219 89.750000 199.250000 90.351562 C 199.550781 90.949219 199.898438 91.550781 200.300781 92.148438 C 200.699219 92.750000 201.000000 93.167969 201.199219 93.398438 C 201.500000 93.800781 201.898438 94.300781 202.398438 94.898438 C 202.898438 95.535156 203.464844 96.132812 204.101562 96.699219 C 204.734375 97.300781 205.433594 97.785156 206.199219 98.148438 C 204.234375 99.785156 202.066406 101.015625 199.699219 101.851562 C 197.367188 102.683594 195.117188 103.234375 192.949219 103.500000 C 190.785156 103.765625 189.015625 103.898438 187.648438 103.898438 C 186.250000 103.867188 185.535156 103.851562 185.500000 103.851562 C 185.500000 103.882812 185.734375 104.199219 186.199219 104.800781 C 186.699219 105.433594 187.398438 106.132812 188.300781 106.898438 C 189.199219 107.632812 190.300781 108.234375 191.601562 108.699219 C 189.734375 109.167969 187.785156 109.484375 185.750000 109.648438 C 183.683594 109.785156 181.765625 109.816406 180.000000 109.750000 C 178.199219 109.683594 176.750000 109.601562 175.648438 109.500000 C 174.515625 109.398438 173.933594 109.332031 173.898438 109.300781 C 173.898438 109.332031 174.234375 109.832031 174.898438 110.800781 C 175.535156 111.765625 176.515625 113.000000 177.851562 114.500000 C 179.183594 116.000000 180.851562 117.550781 182.851562 119.148438 C 184.882812 120.785156 187.250000 122.265625 189.949219 123.601562 C 192.648438 124.964844 195.714844 125.984375 199.148438 126.648438 C 200.351562 126.882812 201.500000 127.000000 202.601562 127.000000 C 203.667969 127.000000 204.648438 126.964844 205.550781 126.898438 C 205.882812 130.000000 206.582031 132.832031 207.648438 135.398438 C 208.714844 137.933594 209.898438 140.117188 211.199219 141.949219 C 212.500000 143.785156 213.632812 145.214844 214.601562 146.250000 C 215.601562 147.285156 216.167969 147.851562 216.300781 147.949219 L 223.500000 154.300781 L 223.101562 148.000000 C 224.398438 150.367188 226.035156 152.648438 228.000000 154.851562 C 229.964844 157.082031 232.035156 159.148438 234.199219 161.050781 C 236.367188 162.984375 238.417969 164.683594 240.351562 166.148438 C 242.285156 167.648438 243.882812 168.832031 245.148438 169.699219 C 246.417969 170.566406 247.132812 171.035156 247.300781 171.101562 C 246.632812 168.132812 246.535156 165.351562 247.000000 162.750000 C 247.500000 160.148438 248.332031 157.750000 249.500000 155.550781 C 250.667969 153.316406 251.933594 151.285156 253.300781 149.449219 C 254.699219 147.617188 255.984375 145.964844 257.148438 144.500000 L 257.500000 144.101562 C 258.800781 142.367188 259.750000 140.582031 260.351562 138.750000 C 260.917969 136.949219 261.234375 135.214844 261.300781 133.550781 C 262.566406 134.183594 263.933594 134.515625 265.398438 134.550781 C 266.898438 134.550781 268.183594 134.449219 269.250000 134.250000 C 270.351562 134.050781 270.917969 133.933594 270.949219 133.898438 C 270.917969 133.898438 270.632812 133.601562 270.101562 133.000000 C 269.566406 132.433594 268.933594 131.632812 268.199219 130.601562 C 267.500000 129.535156 266.832031 128.285156 266.199219 126.851562 C 265.601562 125.449219 265.234375 123.882812 265.101562 122.148438 C 266.265625 122.714844 267.367188 122.964844 268.398438 122.898438 C 269.464844 122.832031 270.332031 122.667969 271.000000 122.398438 C 271.667969 122.132812 272.015625 121.984375 272.050781 121.949219 L 270.398438 116.851562 C 269.632812 114.550781 269.285156 112.367188 269.351562 110.300781 C 269.449219 108.234375 269.765625 106.367188 270.300781 104.699219 C 270.832031 103.035156 271.433594 101.617188 272.101562 100.449219 C 272.734375 99.316406 273.250000 98.500000 273.648438 98.000000 C 278.648438 94.867188 282.398438 91.832031 284.898438 88.898438 C 287.398438 85.964844 288.785156 83.101562 289.050781 80.300781 C 289.148438 79.000000 288.984375 77.765625 288.550781 76.601562 C 288.082031 75.433594 287.515625 74.382812 286.851562 73.449219 C 286.183594 72.550781 285.582031 71.832031 285.050781 71.300781 C 284.515625 70.765625 284.250000 70.500000 284.250000 70.500000 "/>
  </g>
  <g id="surface4">
    <text style="fill:rgb(0,0,0)" font-family="Miniver" font-size="51" transform="matrix(1,0,0,1,37.5,140)" xml:space="preserve"><![CDATA[Sara Blevins]]></text>
    <text style="fill:rgb(0,0,0)" font-family="Miniver" font-size="29" transform="matrix(1,0,0,1,150.5,186)" xml:space="preserve"><![CDATA[Making it So]]></text>
  </g>
</svg>